<?xml version="1.0" encoding="UTF-8"?>
<svg version="1.1" xmlns="http://www.w3.org/2000/svg" width="512" height="512">
<path d="M0 0 C1.31048309 -0.0071553 2.62096619 -0.01431061 3.97116089 -0.02168274 C5.41163611 -0.02452254 6.8521116 -0.02723433 8.29258728 -0.02983093 C9.81915947 -0.03610189 11.34573015 -0.04274925 12.87229919 -0.04974365 C17.87428234 -0.07071495 22.87626554 -0.08114101 27.87828064 -0.09111023 C29.60594129 -0.09516067 31.33360179 -0.09927768 33.06126213 -0.10346031 C41.18189768 -0.12249845 49.30252423 -0.13673116 57.42317778 -0.14507228 C66.76978841 -0.15483337 76.1161615 -0.18112914 85.46268851 -0.22157317 C92.70456828 -0.25182507 99.94638032 -0.26654981 107.18832201 -0.26985329 C111.50524392 -0.27219381 115.8219117 -0.28102303 120.13876534 -0.30631447 C124.20595236 -0.32975916 128.27272086 -0.33376338 132.33995819 -0.32355309 C133.82290739 -0.32306154 135.30587836 -0.32926793 136.78876305 -0.34310913 C156.24744268 -0.5143993 170.87219924 5.84654187 184.7436676 19.2177887 C186.26829501 20.72470502 187.78769099 22.23692744 189.30259705 23.75361633 C190.14122787 24.58552994 190.9798587 25.41744354 191.84390259 26.27456665 C194.59110317 29.00290158 197.33082551 31.73859149 200.06968689 34.47529602 C201.0218838 35.42464104 201.97425099 36.3738153 202.92678452 37.32282257 C207.91305434 42.29065508 212.89419933 47.26355927 217.87046814 52.2414093 C222.48350258 56.85564504 227.10757888 61.45860501 231.73697054 66.05642438 C235.73424787 70.02742431 239.72364747 74.00622604 243.70717084 77.99102283 C246.07638489 80.36074293 248.44935081 82.72633764 250.82855606 85.08605194 C253.48451712 87.72227875 256.1273427 90.37104695 258.7674408 93.02314758 C259.54164871 93.78611649 260.31585663 94.54908539 261.11352539 95.33517456 C268.15346402 102.45616456 273.83501192 110.51394028 277.28062439 119.95967102 C277.8645697 121.51621399 277.8645697 121.51621399 278.46031189 123.10420227 C280.21619507 128.75640474 280.5542946 134.2139588 280.55279541 140.09910583 C280.5564721 140.88233023 280.56014879 141.66555462 280.56393689 142.47251308 C280.57491977 145.08819357 280.57880849 147.70383426 280.58262634 150.3195343 C280.58889548 152.19927596 280.59554268 154.0790164 280.60253906 155.95875549 C280.6235429 162.12832279 280.63394375 168.29789021 280.64390564 174.46748352 C280.64795573 176.59864693 280.65207273 178.72981021 280.65625572 180.86097336 C280.67530589 190.8840378 280.68953261 200.90709493 280.69786769 210.93017399 C280.7076146 222.45800413 280.7338681 233.98564094 280.77436858 245.51340306 C280.80466804 254.44794685 280.81934993 263.38243571 280.8226487 272.31702983 C280.82498506 277.64075808 280.83375824 282.96427981 280.85910988 288.28795242 C280.88263624 293.30970007 280.88652668 298.33110887 280.8763485 303.35289764 C280.8758588 305.1796037 280.88200846 307.00632785 280.89590454 308.83298111 C281.03197015 327.80642216 278.1210748 345.17895392 269.40562439 362.14717102 C268.88226501 363.19131165 268.35890564 364.23545227 267.81968689 365.31123352 C255.67453592 387.76495165 234.00424881 404.89730477 209.72827435 412.48892879 C197.53288092 415.94512024 186.31326174 416.58490915 173.72666931 416.55122375 C171.78176484 416.55693819 169.83686371 416.56390656 167.89196777 416.57202148 C162.64797193 416.58985089 157.40414436 416.58880368 152.1601274 416.5830791 C147.7644696 416.57997192 143.36884341 416.58609671 138.97319013 416.59211785 C128.59346333 416.60612837 118.21381889 416.6046312 107.83409119 416.59321594 C97.16630318 416.58174232 86.49876681 416.59580577 75.83101195 416.62261242 C66.63476848 416.64484646 57.43860355 416.65138937 48.24233514 416.64553601 C42.76626416 416.64218312 37.29035435 416.6444695 31.81430626 416.66178703 C26.66028846 416.67737712 21.50664018 416.67316827 16.35263634 416.65448189 C14.47468633 416.65082893 12.5967082 416.65380671 10.71878433 416.66436768 C-4.30566041 416.74232869 -18.48281697 414.93682622 -32.40687561 408.89717102 C-33.45512512 408.45220276 -33.45512512 408.45220276 -34.52455139 407.99824524 C-41.07080571 405.11633149 -46.88876804 401.46057815 -52.59437561 397.14717102 C-53.53925842 396.43560852 -54.48414124 395.72404602 -55.45765686 394.99092102 C-75.91297403 378.92090698 -88.98350877 355.75285223 -93.16113853 330.09108734 C-94.13474952 321.2279487 -93.88018381 312.2804621 -93.86903381 303.37471008 C-93.87338649 301.07380509 -93.87857148 298.77290154 -93.88452148 296.47200012 C-93.89786399 290.24867795 -93.89849537 284.02541669 -93.89595819 277.80208302 C-93.89488509 272.5937361 -93.89978057 267.38540133 -93.90456361 262.17705703 C-93.91627512 249.17978218 -93.91544316 236.18254185 -93.9090068 223.1852648 C-93.90384172 211.93211305 -93.91508648 200.67904797 -93.93410502 189.42591336 C-93.95354054 177.8360396 -93.96143881 166.24621043 -93.95798177 154.65632033 C-93.95617497 148.16361828 -93.95874452 141.67099558 -93.9726963 135.17830658 C-93.98533567 129.06818407 -93.98327298 122.95823408 -93.97028542 116.84811401 C-93.96793322 114.61659434 -93.97060511 112.38506229 -93.97890854 110.15355682 C-94.07570942 82.09695551 -88.46040139 56.89106514 -69.59437561 35.14717102 C-68.94082092 34.33763977 -68.28726624 33.52810852 -67.61390686 32.69404602 C-51.66085274 13.65813154 -24.98837917 0.09405624 0 0 Z M-42.59437561 54.14717102 C-58.32044787 72.58463505 -61.20673496 91.53815746 -61.11195374 114.90888977 C-61.117384 117.17245431 -61.1245117 119.4360153 -61.13319397 121.6995697 C-61.15132257 127.80702115 -61.14440312 133.91420024 -61.13167763 140.02165604 C-61.12149552 146.43679242 -61.1309577 152.85190669 -61.13722229 159.26704407 C-61.14494765 170.72500342 -61.13257776 182.18281296 -61.11218494 193.64074695 C-61.09431735 204.00004553 -61.09742253 214.35916473 -61.11585999 224.71846008 C-61.13733365 236.78909411 -61.14519831 248.85959295 -61.13341093 260.93025303 C-61.12719981 267.30496077 -61.12627456 273.67954534 -61.13955688 280.054245 C-61.15117791 286.04956126 -61.14297584 292.04454138 -61.11997986 298.03982162 C-61.11472605 300.22983113 -61.11614887 302.4198693 -61.12503052 304.6098671 C-61.2096584 327.61138229 -56.69532224 347.71843472 -40.1285553 364.69258118 C-21.86667338 382.00707711 0.31193941 384.30104479 24.20542908 384.29243469 C25.87727431 384.29543246 27.54911886 384.2988364 29.22096252 384.3026123 C33.73357481 384.31139356 38.2461681 384.31378792 42.75878811 384.31442809 C45.58602785 384.31514192 48.41326285 384.31728252 51.2405014 384.31992531 C61.12627465 384.32915922 71.01203447 384.33326264 80.89781189 384.33247375 C90.07668116 384.33187346 99.25549157 384.34242094 108.43434596 384.35821742 C116.34556754 384.37134159 124.25677 384.37665561 132.16800237 384.37601835 C136.87942025 384.3757648 141.59078576 384.37853638 146.30219269 384.3891964 C150.73789041 384.39895994 155.17348654 384.39890069 159.60918808 384.39167976 C161.22513098 384.39064411 162.84108048 384.39293519 164.45701218 384.39904022 C189.39407515 384.487055 210.8127479 380.1050449 229.40562439 362.14717102 C244.27675121 345.47417454 247.88782023 327.2484457 247.74620056 305.68891907 C247.74535262 303.86436477 247.74583269 302.03980945 247.74752808 300.21525574 C247.74838294 295.30080152 247.73084032 290.38657045 247.7098062 285.47216773 C247.69095384 280.32192117 247.68928225 275.17166856 247.68572998 270.02139282 C247.67643454 260.28592743 247.65185484 250.55056404 247.62168151 240.81514341 C247.58805935 229.72437811 247.5716319 218.63360775 247.55659521 207.54280412 C247.52530288 184.74420338 247.47259138 161.94569293 247.40562439 139.14717102 C246.7373613 139.14352539 246.06909821 139.13987976 245.38058472 139.13612366 C238.35465598 139.09394938 231.32935945 139.02436496 224.30381775 138.93965149 C221.69027565 138.91161991 219.07665159 138.8903179 216.46299744 138.87617493 C194.39525304 138.74966388 175.25417843 137.95772759 158.21031189 122.08076477 C146.23728735 109.25252419 142.1443304 94.82605502 142.02671814 77.71357727 C142.00972366 76.43989792 141.99272919 75.16621857 141.97521973 73.85394287 C141.93126733 70.49248045 141.89486814 67.13113214 141.86302185 63.76954651 C141.81704421 59.00973278 141.76145496 54.25005944 141.70031738 49.49041748 C141.66828385 46.95976806 141.64141791 44.42904718 141.62008667 41.89828491 C141.60659683 40.76297836 141.59310699 39.62767181 141.57920837 38.45796204 C141.5696965 37.45394852 141.56018463 36.449935 141.55038452 35.41549683 C141.65848145 33.17981586 141.65848145 33.17981586 140.40562439 32.14717102 C138.72077248 32.04662196 137.03168851 32.01640749 135.34384155 32.01345825 C133.69783966 32.00706078 133.69783966 32.00706078 132.01858521 32.00053406 C130.19621086 32.00121384 130.19621086 32.00121384 128.33702087 32.00190735 C127.06535065 31.99854874 125.79368042 31.99519012 124.48347473 31.99172974 C120.98050047 31.98286137 117.47755062 31.98055009 113.97456622 31.97991395 C111.78089376 31.97920362 109.58722751 31.97706936 107.39355659 31.97441673 C99.72415397 31.96514529 92.05476876 31.96108301 84.38536072 31.96186829 C77.26755167 31.9624656 70.14981927 31.95198709 63.03202957 31.93612462 C56.90526714 31.92296399 50.77852943 31.91768812 44.65175301 31.9183237 C41.00040729 31.91857673 37.34912927 31.91583624 33.69779778 31.90514565 C5.54046462 31.82866425 -21.76746298 32.07742274 -42.59437561 54.14717102 Z M173.40562439 56.14717102 C173.34676268 59.93877066 173.31174215 63.73025021 173.28062439 67.52217102 C173.26386658 68.58306946 173.24710876 69.6439679 173.22984314 70.73701477 C173.16455463 81.37904133 173.83440088 91.06708728 181.40562439 99.14717102 C187.79618684 103.87797619 193.06122407 106.27967932 201.04234314 106.24482727 C202.34107361 106.24160461 203.63980408 106.23838196 204.97789001 106.23506165 C206.34963547 106.22670633 207.72138026 106.21824139 209.09312439 106.20967102 C210.47658634 106.20465437 211.86005002 106.20009175 213.24351501 106.19599915 C216.63092834 106.18419631 220.01825472 106.16773121 223.40562439 106.14717102 C218.40674891 100.11454102 212.99247931 94.5888334 207.44859314 89.05732727 C206.49534774 88.10340701 205.54225073 87.14933846 204.58929443 86.19512939 C202.6065933 84.21096416 200.62212005 82.22859375 198.63633728 80.24751282 C196.0862134 77.70313246 193.54066849 75.15422529 190.99639416 72.60399723 C189.03631467 70.64031701 187.07387577 68.67900875 185.11069679 66.71842766 C183.71279631 65.32152035 182.31691282 63.92259559 180.92105103 62.52365112 C180.07960037 61.68535263 179.23814972 60.84705414 178.37120056 59.98335266 C177.62762802 59.24057571 176.88405548 58.49779877 176.11795044 57.73251343 C174.67224777 56.03394191 174.67224777 56.03394191 173.40562439 56.14717102 Z " fill="#000000" transform="translate(162.59437561035156,47.85282897949219)"/>
<path d="M0 0 C9.81194923 7.71098516 17.27878062 20.73276946 19.55859375 32.96484375 C21.29822419 49.2497176 19.07099205 64.02582359 8.765625 77.26171875 C1.76446182 85.35032264 -5.90414387 92.10670912 -16.16015625 95.59765625 C-16.82015625 95.59765625 -17.48015625 95.59765625 -18.16015625 95.59765625 C-18.24265625 96.79390625 -18.32515625 97.99015625 -18.41015625 99.22265625 C-18.99787104 103.59958483 -20.12798889 106.26227215 -23.16015625 109.59765625 C-28.23160608 112.75627684 -33.15051457 114.48797354 -39.16015625 113.59765625 C-44.01331853 111.67896419 -47.24540993 108.96977573 -50.16015625 104.59765625 C-53.1493972 95.6299334 -51.37083526 85.34652226 -47.47265625 76.97265625 C-43.10570497 70.05440368 -37.47287313 67.17600076 -30.09765625 64.16015625 C-22.67426222 61.1135805 -18.98375805 58.34644109 -14.78515625 51.28515625 C-13.2329387 44.61062076 -13.37852418 38.43953344 -16.828125 32.41796875 C-20.51567858 27.37867266 -24.9789963 23.88539791 -31.16015625 22.59765625 C-37.93864994 21.97001795 -43.04260572 23.74197141 -48.78515625 27.16015625 C-51.75175594 30.20482435 -53.5749329 33.57614814 -55.6796875 37.25 C-58.15827136 41.18041926 -60.80708859 43.1466337 -65.16015625 44.59765625 C-70.85278463 45.16149754 -75.30959763 44.90485531 -80.16015625 41.59765625 C-84.17156842 37.61885719 -85.96693582 34.33664012 -86.59765625 28.66015625 C-86.44090465 19.00425762 -80.14655353 10.63122259 -73.703125 3.91796875 C-52.09457671 -15.79858684 -23.79847834 -15.44964507 0 0 Z " fill="#000000" transform="translate(289.16015625,197.40234375)"/>
<path d="M0 0 C1.010625 -0.00773437 2.02125 -0.01546875 3.0625 -0.0234375 C7.70496206 0.60625815 10.84970467 2.75904738 13.75 6.375 C17.12799428 10.87899237 17.56481308 14.87330221 17 20.375 C14.99703332 26.05007225 11.38649821 29.68175089 6 32.375 C0.49361777 32.87782832 -4.40239776 33.08821529 -9.5 30.8125 C-14.04325437 26.38282699 -16.20449089 22.7365252 -16.5625 16.4375 C-16.33834866 11.1859544 -14.59149096 7.21479156 -11 3.375 C-7.27291926 0.62240217 -4.60674952 -0.03525574 0 0 Z " fill="#000000" transform="translate(254,319.625)"/>
</svg>
